<svg version="1.1" id="Layer_1" xmlns="http://www.w3.org/2000/svg" xmlns:xlink="http://www.w3.org/1999/xlink" x="0px" y="0px"
	 width="100%" viewBox="0 0 512 512" enable-background="new 0 0 512 512" xml:space="preserve">
<path fill="#FFDE59" opacity="1.000000" stroke="none" 
	d="
M513.000000,89.000000 
	C513.000000,201.022018 513.000000,313.044037 512.639648,425.687958 
	C512.167786,426.792328 512.041748,427.271942 511.947021,427.757629 
	C503.525299,470.949860 478.639282,498.932770 435.728180,510.258575 
	C432.159515,511.200500 428.576385,512.087463 425.000000,513.000000 
	C312.977997,513.000000 200.955978,513.000000 88.327698,512.631470 
	C86.426620,511.984772 85.133553,511.698181 83.836746,511.429718 
	C41.117748,502.585846 14.551485,476.774506 3.354583,434.816986 
	C2.570231,431.877838 1.784884,428.938995 1.000001,426.000000 
	C1.000000,313.644653 1.000000,201.289307 1.360487,88.311737 
	C1.830716,87.206749 1.953978,86.726624 2.048276,86.240875 
	C10.395406,43.243378 35.135426,15.313263 77.786392,3.857821 
	C81.511398,2.857336 85.261536,1.950393 89.000000,1.000000 
	C200.688675,1.000000 312.377350,1.000000 424.681244,1.372593 
	C468.631561,8.146594 500.296509,36.751560 510.484741,78.699509 
	C511.318909,82.134041 512.161377,85.566551 513.000000,89.000000 
M338.990509,425.499817 
	C338.990509,392.738495 338.990509,359.977173 338.990509,326.859467 
	C356.348297,332.203552 373.581818,332.949982 390.751740,330.083038 
	C411.503174,326.618042 429.670868,317.387756 445.440216,303.270325 
	C475.413635,276.436829 486.350739,242.595810 481.316193,203.543640 
	C478.566101,182.211960 469.057098,163.383301 454.532684,147.240250 
	C432.811737,123.098633 405.844055,110.518982 373.335632,109.962578 
	C352.669708,109.608856 333.213165,114.492088 314.677826,123.470993 
	C313.408783,124.085747 311.422546,124.278145 310.187500,123.728531 
	C303.529480,120.765617 297.170227,117.074997 290.391632,114.453102 
	C280.930206,110.793533 271.085205,109.068604 260.712585,111.257706 
	C260.712585,126.631783 260.837616,141.454681 260.601837,156.271851 
	C260.557312,159.067215 259.838409,162.499146 258.110809,164.494659 
	C253.581573,169.726379 248.323318,174.326920 243.035492,179.491638 
	C239.072952,172.531693 235.747192,165.872711 231.685806,159.697556 
	C213.708221,132.363586 188.219788,116.321419 156.064224,111.376801 
	C136.569397,108.379036 117.134087,110.044769 98.687660,117.385788 
	C69.933456,128.828949 49.064259,148.638443 37.074070,177.474869 
	C24.358717,208.055328 25.162291,238.655289 38.989620,268.283966 
	C53.380909,299.121063 77.700119,319.440948 110.839432,328.044189 
	C145.008911,336.914856 176.535751,329.976807 205.697800,310.512817 
	C222.627533,299.213226 237.965500,286.095856 252.203293,271.613739 
	C254.655533,269.119415 257.323212,266.836884 260.712646,263.695312 
	C260.712646,267.014648 260.707092,268.974731 260.713440,270.934784 
	C260.830933,307.253174 260.536346,343.579895 261.271301,379.885803 
	C261.566589,394.473633 266.169708,408.419525 275.010559,420.345795 
	C287.410889,437.073761 304.486908,445.552979 325.102112,447.157288 
	C329.620270,447.508911 334.148987,447.725464 338.990509,448.023773 
	C338.990509,440.142303 338.990509,433.321014 338.990509,425.499817 
z"/>
<path fill="#070B24" opacity="1.000000" stroke="none" 
	d="
M513.000000,88.531342 
	C512.161377,85.566551 511.318909,82.134041 510.484741,78.699509 
	C500.296509,36.751560 468.631561,8.146594 425.148224,1.372593 
	C454.260223,1.000000 483.520477,1.000000 513.000000,1.000000 
	C513.000000,30.020527 513.000000,59.041603 513.000000,88.531342 
z"/>
<path fill="#070B24" opacity="1.000000" stroke="none" 
	d="
M425.468658,513.000000 
	C428.576385,512.087463 432.159515,511.200500 435.728180,510.258575 
	C478.639282,498.932770 503.525299,470.949860 511.947021,427.757629 
	C512.041748,427.271942 512.167786,426.792328 512.639648,426.154938 
	C513.000000,454.927338 513.000000,483.854645 513.000000,513.000000 
	C483.979462,513.000000 454.958405,513.000000 425.468658,513.000000 
z"/>
<path fill="#070B24" opacity="1.000000" stroke="none" 
	d="
M88.531342,1.000000 
	C85.261536,1.950393 81.511398,2.857336 77.786392,3.857821 
	C35.135426,15.313263 10.395406,43.243378 2.048276,86.240875 
	C1.953978,86.726624 1.830716,87.206749 1.360487,87.844749 
	C1.000000,59.072674 1.000000,30.145346 1.000000,1.000000 
	C30.020531,1.000000 59.041607,1.000000 88.531342,1.000000 
z"/>
<path fill="#070B24" opacity="1.000000" stroke="none" 
	d="
M1.000001,426.468658 
	C1.784884,428.938995 2.570231,431.877838 3.354583,434.816986 
	C14.551485,476.774506 41.117748,502.585846 83.836746,511.429718 
	C85.133553,511.698181 86.426620,511.984772 87.860718,512.631470 
	C59.073093,513.000000 30.146185,513.000000 1.000000,513.000000 
	C1.000000,484.312805 1.000000,455.625061 1.000001,426.468658 
z"/>
<path fill="#060B24" opacity="1.000000" stroke="none" 
	d="
M338.990509,425.999756 
	C338.990509,433.321014 338.990509,440.142303 338.990509,448.023773 
	C334.148987,447.725464 329.620270,447.508911 325.102112,447.157288 
	C304.486908,445.552979 287.410889,437.073761 275.010559,420.345795 
	C266.169708,408.419525 261.566589,394.473633 261.271301,379.885803 
	C260.536346,343.579895 260.830933,307.253174 260.713440,270.934784 
	C260.707092,268.974731 260.712646,267.014648 260.712646,263.695312 
	C257.323212,266.836884 254.655533,269.119415 252.203293,271.613739 
	C237.965500,286.095856 222.627533,299.213226 205.697800,310.512817 
	C176.535751,329.976807 145.008911,336.914856 110.839432,328.044189 
	C77.700119,319.440948 53.380909,299.121063 38.989620,268.283966 
	C25.162291,238.655289 24.358717,208.055328 37.074070,177.474869 
	C49.064259,148.638443 69.933456,128.828949 98.687660,117.385788 
	C117.134087,110.044769 136.569397,108.379036 156.064224,111.376801 
	C188.219788,116.321419 213.708221,132.363586 231.685806,159.697556 
	C235.747192,165.872711 239.072952,172.531693 243.035492,179.491638 
	C248.323318,174.326920 253.581573,169.726379 258.110809,164.494659 
	C259.838409,162.499146 260.557312,159.067215 260.601837,156.271851 
	C260.837616,141.454681 260.712585,126.631783 260.712585,111.257706 
	C271.085205,109.068604 280.930206,110.793533 290.391632,114.453102 
	C297.170227,117.074997 303.529480,120.765617 310.187500,123.728531 
	C311.422546,124.278145 313.408783,124.085747 314.677826,123.470993 
	C333.213165,114.492088 352.669708,109.608856 373.335632,109.962578 
	C405.844055,110.518982 432.811737,123.098633 454.532684,147.240250 
	C469.057098,163.383301 478.566101,182.211960 481.316193,203.543640 
	C486.350739,242.595810 475.413635,276.436829 445.440216,303.270325 
	C429.670868,317.387756 411.503174,326.618042 390.751740,330.083038 
	C373.581818,332.949982 356.348297,332.203552 338.990509,326.859467 
	C338.990509,359.977173 338.990509,392.738495 338.990509,425.999756 
M188.192719,232.704132 
	C197.627975,225.154831 206.023682,216.576920 213.804443,207.333298 
	C201.057236,214.961288 188.826752,223.166840 176.535431,231.280197 
	C175.447083,231.998596 173.961899,232.115814 172.661026,232.512238 
	C172.318787,231.140839 171.785660,229.781998 171.694351,228.394089 
	C171.620636,227.273453 172.118454,226.123779 172.296722,224.976730 
	C175.154251,206.591675 159.912567,188.418503 141.337067,188.051422 
	C117.663040,187.583572 100.797585,210.832886 109.254158,232.927780 
	C114.396408,246.363190 127.911064,256.274506 144.365158,254.141510 
	C161.029480,251.981323 174.791580,243.397400 188.192719,232.704132 
M321.705139,205.219971 
	C314.758514,210.504807 307.811920,215.789642 300.865326,221.074478 
	C301.118195,221.515671 301.371094,221.956879 301.623993,222.398087 
	C303.397430,221.781235 305.295074,221.393326 306.923828,220.509781 
	C316.403778,215.367157 325.798798,210.067795 335.286743,204.940262 
	C336.454193,204.309326 338.004150,204.386093 339.376801,204.134903 
	C339.489563,205.544876 339.822144,206.980026 339.664185,208.358978 
	C339.419647,210.493210 338.802765,212.582092 338.408295,214.702209 
	C333.418121,241.522736 356.484131,257.449371 375.032562,254.022385 
	C391.799713,250.924515 404.431183,237.475922 402.917297,217.916214 
	C401.644318,201.469376 386.919312,187.986069 369.909180,188.093872 
	C352.169708,188.206284 336.756653,195.194107 321.705139,205.219971 
z"/>
<path fill="#FCDC58" opacity="1.000000" stroke="none" 
	d="
M187.933060,232.949875 
	C174.791580,243.397400 161.029480,251.981323 144.365158,254.141510 
	C127.911064,256.274506 114.396408,246.363190 109.254158,232.927780 
	C100.797585,210.832886 117.663040,187.583572 141.337067,188.051422 
	C159.912567,188.418503 175.154251,206.591675 172.296722,224.976730 
	C172.118454,226.123779 171.620636,227.273453 171.694351,228.394089 
	C171.785660,229.781998 172.318787,231.140839 172.661026,232.512238 
	C173.961899,232.115814 175.447083,231.998596 176.535431,231.280197 
	C188.826752,223.166840 201.057236,214.961288 213.804443,207.333298 
	C206.023682,216.576920 197.627975,225.154831 187.933060,232.949875 
z"/>
<path fill="#FCDC59" opacity="1.000000" stroke="none" 
	d="
M322.036469,205.073547 
	C336.756653,195.194107 352.169708,188.206284 369.909180,188.093872 
	C386.919312,187.986069 401.644318,201.469376 402.917297,217.916214 
	C404.431183,237.475922 391.799713,250.924515 375.032562,254.022385 
	C356.484131,257.449371 333.418121,241.522736 338.408295,214.702209 
	C338.802765,212.582092 339.419647,210.493210 339.664185,208.358978 
	C339.822144,206.980026 339.489563,205.544876 339.376831,204.134903 
	C338.004150,204.386093 336.454193,204.309326 335.286743,204.940262 
	C325.798798,210.067795 316.403778,215.367157 306.923828,220.509781 
	C305.295074,221.393326 303.397430,221.781235 301.623993,222.398087 
	C301.371094,221.956879 301.118195,221.515671 300.865326,221.074478 
	C307.811920,215.789642 314.758514,210.504807 322.036469,205.073547 
z"/>
</svg>